<svg id="visual" viewBox="0 0 900 600" width="900" height="600" xmlns="http://www.w3.org/2000/svg" xmlns:xlink="http://www.w3.org/1999/xlink" version="1.1"><path d="M0 37L13.7 40C27.3 43 54.7 49 82 56C109.3 63 136.7 71 163.8 68C191 65 218 51 245.2 48C272.3 45 299.7 53 327 59C354.3 65 381.7 69 409 68C436.3 67 463.7 61 491 59C518.3 57 545.7 59 573 60C600.3 61 627.7 61 654.8 62C682 63 709 65 736.2 62C763.3 59 790.7 51 818 53C845.3 55 872.7 67 886.3 73L900 79L900 0L886.3 0C872.7 0 845.3 0 818 0C790.7 0 763.3 0 736.2 0C709 0 682 0 654.8 0C627.7 0 600.3 0 573 0C545.7 0 518.3 0 491 0C463.7 0 436.3 0 409 0C381.7 0 354.3 0 327 0C299.7 0 272.3 0 245.2 0C218 0 191 0 163.8 0C136.7 0 109.3 0 82 0C54.7 0 27.3 0 13.7 0L0 0Z" fill="#ab20fd"></path><path d="M0 115L13.7 113C27.3 111 54.7 107 82 114C109.3 121 136.7 139 163.8 142C191 145 218 133 245.2 130C272.3 127 299.7 133 327 140C354.3 147 381.7 155 409 152C436.3 149 463.7 135 491 130C518.3 125 545.7 129 573 130C600.3 131 627.7 129 654.8 133C682 137 709 147 736.2 144C763.3 141 790.7 125 818 126C845.3 127 872.7 145 886.3 154L900 163L900 77L886.3 71C872.7 65 845.3 53 818 51C790.7 49 763.3 57 736.2 60C709 63 682 61 654.8 60C627.7 59 600.3 59 573 58C545.7 57 518.3 55 491 57C463.7 59 436.3 65 409 66C381.7 67 354.3 63 327 57C299.7 51 272.3 43 245.2 46C218 49 191 63 163.8 66C136.7 69 109.3 61 82 54C54.7 47 27.3 41 13.7 38L0 35Z" fill="#5f2781"></path><path d="M0 319L13.7 314C27.3 309 54.7 299 82 300C109.3 301 136.7 313 163.8 309C191 305 218 285 245.2 281C272.3 277 299.7 289 327 301C354.3 313 381.7 325 409 316C436.3 307 463.7 277 491 280C518.3 283 545.7 319 573 319C600.3 319 627.7 283 654.8 268C682 253 709 259 736.2 271C763.3 283 790.7 301 818 314C845.3 327 872.7 335 886.3 339L900 343L900 161L886.3 152C872.7 143 845.3 125 818 124C790.7 123 763.3 139 736.2 142C709 145 682 135 654.8 131C627.7 127 600.3 129 573 128C545.7 127 518.3 123 491 128C463.7 133 436.3 147 409 150C381.7 153 354.3 145 327 138C299.7 131 272.3 125 245.2 128C218 131 191 143 163.8 140C136.7 137 109.3 119 82 112C54.7 105 27.3 109 13.7 111L0 113Z" fill="#181818"></path><path d="M0 415L13.7 424C27.3 433 54.7 451 82 455C109.3 459 136.7 449 163.8 437C191 425 218 411 245.2 413C272.3 415 299.7 433 327 443C354.3 453 381.7 455 409 451C436.3 447 463.7 437 491 438C518.3 439 545.7 451 573 458C600.3 465 627.7 467 654.8 471C682 475 709 481 736.2 473C763.3 465 790.7 443 818 443C845.3 443 872.7 465 886.3 476L900 487L900 341L886.3 337C872.7 333 845.3 325 818 312C790.7 299 763.3 281 736.2 269C709 257 682 251 654.8 266C627.7 281 600.3 317 573 317C545.7 317 518.3 281 491 278C463.7 275 436.3 305 409 314C381.7 323 354.3 311 327 299C299.7 287 272.3 275 245.2 279C218 283 191 303 163.8 307C136.7 311 109.3 299 82 298C54.7 297 27.3 307 13.7 312L0 317Z" fill="#181818"></path><path d="M0 457L13.7 470C27.3 483 54.7 509 82 517C109.3 525 136.7 515 163.8 503C191 491 218 477 245.2 475C272.3 473 299.7 483 327 495C354.3 507 381.7 521 409 518C436.3 515 463.7 495 491 494C518.3 493 545.7 511 573 522C600.3 533 627.7 537 654.8 537C682 537 709 533 736.2 527C763.3 521 790.7 513 818 516C845.3 519 872.7 533 886.3 540L900 547L900 485L886.3 474C872.7 463 845.3 441 818 441C790.7 441 763.3 463 736.2 471C709 479 682 473 654.8 469C627.7 465 600.3 463 573 456C545.7 449 518.3 437 491 436C463.7 435 436.3 445 409 449C381.7 453 354.3 451 327 441C299.7 431 272.3 413 245.2 411C218 409 191 423 163.8 435C136.7 447 109.3 457 82 453C54.7 449 27.3 431 13.7 422L0 413Z" fill="#5f2781"></path><path d="M0 601L13.7 601C27.3 601 54.7 601 82 601C109.3 601 136.7 601 163.8 601C191 601 218 601 245.2 601C272.3 601 299.7 601 327 601C354.3 601 381.7 601 409 601C436.3 601 463.7 601 491 601C518.3 601 545.7 601 573 601C600.3 601 627.7 601 654.8 601C682 601 709 601 736.2 601C763.3 601 790.7 601 818 601C845.3 601 872.7 601 886.3 601L900 601L900 545L886.3 538C872.7 531 845.3 517 818 514C790.7 511 763.3 519 736.2 525C709 531 682 535 654.8 535C627.7 535 600.3 531 573 520C545.7 509 518.3 491 491 492C463.7 493 436.3 513 409 516C381.7 519 354.3 505 327 493C299.7 481 272.3 471 245.2 473C218 475 191 489 163.8 501C136.7 513 109.3 523 82 515C54.7 507 27.3 481 13.7 468L0 455Z" fill="#ab20fd"></path></svg>